<?xml version="1.0" encoding="UTF-8"?>
<svg xmlns="http://www.w3.org/2000/svg" viewBox="0 0 500 500" width="500" height="500">
  <defs>
    <linearGradient id="silverCoilTop" x1="0%" y1="0%" x2="0%" y2="100%">
      <stop offset="0%"   stop-color="#ffffff"/>
      <stop offset="20%"  stop-color="#d0d0d0"/>
      <stop offset="50%"  stop-color="#f8f8f8"/>
      <stop offset="80%"  stop-color="#909090"/>
      <stop offset="100%" stop-color="#c0c0c0"/>
    </linearGradient>

    <linearGradient id="pencilDarkGreen" x1="0%" y1="0%" x2="0%" y2="100%">
      <stop offset="0%"   stop-color="#4a8a4a"/>
      <stop offset="18%"  stop-color="#2a6030"/>
      <stop offset="45%"  stop-color="#3a7a3a"/>
      <stop offset="72%"  stop-color="#1e4e22"/>
      <stop offset="100%" stop-color="#3a7040"/>
    </linearGradient>
    <linearGradient id="pencilHighlight" x1="0%" y1="0%" x2="0%" y2="100%">
      <stop offset="0%"   stop-color="#6aaa6a" stop-opacity="0.7"/>
      <stop offset="100%" stop-color="#6aaa6a" stop-opacity="0"/>
    </linearGradient>
    <linearGradient id="woodTip" x1="100%" y1="0%" x2="0%" y2="0%">
      <stop offset="0%"   stop-color="#d4a060"/>
      <stop offset="60%"  stop-color="#c08840"/>
      <stop offset="100%" stop-color="#b07030"/>
    </linearGradient>
    <linearGradient id="ferruleGrad" x1="0%" y1="0%" x2="0%" y2="100%">
      <stop offset="0%"   stop-color="#e0e0e0"/>
      <stop offset="30%"  stop-color="#c0c0c0"/>
      <stop offset="60%"  stop-color="#f0f0f0"/>
      <stop offset="100%" stop-color="#a8a8a8"/>
    </linearGradient>
    <linearGradient id="eraserGrad" x1="0%" y1="0%" x2="0%" y2="100%">
      <stop offset="0%"   stop-color="#f8f5f0"/>
      <stop offset="50%"  stop-color="#ede8e0"/>
      <stop offset="100%" stop-color="#d8d0c8"/>
    </linearGradient>
    <linearGradient id="blockPage" x1="0%" y1="0%" x2="3%" y2="100%">
      <stop offset="0%"   stop-color="#fdfdfd"/>
      <stop offset="100%" stop-color="#f4f4f0"/>
    </linearGradient>
    <linearGradient id="blockEdge" x1="0%" y1="0%" x2="100%" y2="0%">
      <stop offset="0%"   stop-color="#c8d8e8"/>
      <stop offset="100%" stop-color="#e8eef4"/>
    </linearGradient>

    <filter id="blockShadow" x="-18%" y="-18%" width="145%" height="145%">
      <feDropShadow dx="-7" dy="9" stdDeviation="9" flood-color="#00000068"/>
    </filter>
    <filter id="pencilShadow" x="-30%" y="-30%" width="170%" height="170%">
      <feDropShadow dx="-7" dy="9" stdDeviation="9" flood-color="#00000068"/>
    </filter>
    <filter id="sketchFilter">
      <feTurbulence type="fractalNoise" baseFrequency="0.75" numOctaves="4" seed="3" result="noise"/>
      <feDisplacementMap in="SourceGraphic" in2="noise" scale="0.9"
                         xChannelSelector="R" yChannelSelector="G"/>
    </filter>

    <pattern id="gridPat" x="0" y="0" width="14" height="14" patternUnits="userSpaceOnUse">
      <rect width="14" height="14" fill="url(#blockPage)"/>
      <line x1="0" y1="0" x2="0" y2="14" stroke="#b8cce0" stroke-width="0.45"/>
      <line x1="0" y1="0" x2="14" y2="0" stroke="#b8cce0" stroke-width="0.45"/>
    </pattern>
    <clipPath id="blockClip">
      <rect x="156" y="108" width="186" height="224" rx="3"/>
    </clipPath>
  </defs>

  <!-- ======= NOTIZBLOCK ======= -->
  <g transform="rotate(-10, 250, 220)" filter="url(#blockShadow)">

    <rect x="149" y="104" width="186" height="234" rx="6" fill="#b0b8c4"/>
    <rect x="156" y="98" width="8" height="234" rx="3" fill="#9aaabb" stroke="#7090a8" stroke-width="0.8"/>
    <rect x="156" y="98" width="186" height="234" rx="5"
          fill="url(#gridPat)" stroke="#7090b0" stroke-width="2"/>
    <rect x="252" y="100" width="88" height="10" rx="4" fill="white" opacity="0.45"/>

    <!-- SPIRALEN -->
    <g stroke-linecap="round">
      <g>
        <ellipse cx="171" cy="97" rx="5.5" ry="3.5" fill="#c8c8c8" stroke="#888" stroke-width="0.8"/>
        <path d="M165.5,97 Q171,89 176.5,97 Q171,105 165.5,97" fill="none" stroke="#999" stroke-width="1.5"/>
        <path d="M165.5,97 Q171,104 176.5,97" fill="none" stroke="#d8d8d8" stroke-width="1.8" opacity="0.8"/>
        <ellipse cx="171" cy="97" rx="3" ry="1.8" fill="url(#silverCoilTop)" stroke="none"/>
        <ellipse cx="171" cy="97" rx="1.8" ry="1.1" fill="#555" opacity="0.5"/>

        <ellipse cx="188" cy="97" rx="5.5" ry="3.5" fill="#c8c8c8" stroke="#888" stroke-width="0.8"/>
        <path d="M182.5,97 Q188,89 193.5,97 Q188,105 182.5,97" fill="none" stroke="#999" stroke-width="1.5"/>
        <path d="M182.5,97 Q188,104 193.5,97" fill="none" stroke="#d8d8d8" stroke-width="1.8" opacity="0.8"/>
        <ellipse cx="188" cy="97" rx="3" ry="1.8" fill="url(#silverCoilTop)" stroke="none"/>
        <ellipse cx="188" cy="97" rx="1.8" ry="1.1" fill="#555" opacity="0.5"/>

        <ellipse cx="205" cy="97" rx="5.5" ry="3.5" fill="#c8c8c8" stroke="#888" stroke-width="0.8"/>
        <path d="M199.5,97 Q205,89 210.5,97 Q205,105 199.5,97" fill="none" stroke="#999" stroke-width="1.5"/>
        <path d="M199.5,97 Q205,104 210.5,97" fill="none" stroke="#d8d8d8" stroke-width="1.8" opacity="0.8"/>
        <ellipse cx="205" cy="97" rx="3" ry="1.8" fill="url(#silverCoilTop)" stroke="none"/>
        <ellipse cx="205" cy="97" rx="1.8" ry="1.1" fill="#555" opacity="0.5"/>

        <ellipse cx="222" cy="97" rx="5.5" ry="3.5" fill="#c8c8c8" stroke="#888" stroke-width="0.8"/>
        <path d="M216.5,97 Q222,89 227.5,97 Q222,105 216.5,97" fill="none" stroke="#999" stroke-width="1.5"/>
        <path d="M216.5,97 Q222,104 227.5,97" fill="none" stroke="#d8d8d8" stroke-width="1.8" opacity="0.8"/>
        <ellipse cx="222" cy="97" rx="3" ry="1.8" fill="url(#silverCoilTop)" stroke="none"/>
        <ellipse cx="222" cy="97" rx="1.8" ry="1.1" fill="#555" opacity="0.5"/>

        <ellipse cx="239" cy="97" rx="5.5" ry="3.5" fill="#c8c8c8" stroke="#888" stroke-width="0.8"/>
        <path d="M233.5,97 Q239,89 244.5,97 Q239,105 233.5,97" fill="none" stroke="#999" stroke-width="1.5"/>
        <path d="M233.5,97 Q239,104 244.5,97" fill="none" stroke="#d8d8d8" stroke-width="1.8" opacity="0.8"/>
        <ellipse cx="239" cy="97" rx="3" ry="1.8" fill="url(#silverCoilTop)" stroke="none"/>
        <ellipse cx="239" cy="97" rx="1.8" ry="1.1" fill="#555" opacity="0.5"/>

        <ellipse cx="256" cy="97" rx="5.5" ry="3.5" fill="#c8c8c8" stroke="#888" stroke-width="0.8"/>
        <path d="M250.5,97 Q256,89 261.5,97 Q256,105 250.5,97" fill="none" stroke="#999" stroke-width="1.5"/>
        <path d="M250.5,97 Q256,104 261.5,97" fill="none" stroke="#d8d8d8" stroke-width="1.8" opacity="0.8"/>
        <ellipse cx="256" cy="97" rx="3" ry="1.8" fill="url(#silverCoilTop)" stroke="none"/>
        <ellipse cx="256" cy="97" rx="1.8" ry="1.1" fill="#555" opacity="0.5"/>

        <ellipse cx="273" cy="97" rx="5.5" ry="3.5" fill="#c8c8c8" stroke="#888" stroke-width="0.8"/>
        <path d="M267.5,97 Q273,89 278.5,97 Q273,105 267.5,97" fill="none" stroke="#999" stroke-width="1.5"/>
        <path d="M267.5,97 Q273,104 278.5,97" fill="none" stroke="#d8d8d8" stroke-width="1.8" opacity="0.8"/>
        <ellipse cx="273" cy="97" rx="3" ry="1.8" fill="url(#silverCoilTop)" stroke="none"/>
        <ellipse cx="273" cy="97" rx="1.8" ry="1.1" fill="#555" opacity="0.5"/>

        <ellipse cx="290" cy="97" rx="5.5" ry="3.5" fill="#c8c8c8" stroke="#888" stroke-width="0.8"/>
        <path d="M284.5,97 Q290,89 295.5,97 Q290,105 284.5,97" fill="none" stroke="#999" stroke-width="1.5"/>
        <path d="M284.5,97 Q290,104 295.5,97" fill="none" stroke="#d8d8d8" stroke-width="1.8" opacity="0.8"/>
        <ellipse cx="290" cy="97" rx="3" ry="1.8" fill="url(#silverCoilTop)" stroke="none"/>
        <ellipse cx="290" cy="97" rx="1.8" ry="1.1" fill="#555" opacity="0.5"/>

        <ellipse cx="307" cy="97" rx="5.5" ry="3.5" fill="#c8c8c8" stroke="#888" stroke-width="0.8"/>
        <path d="M301.5,97 Q307,89 312.5,97 Q307,105 301.5,97" fill="none" stroke="#999" stroke-width="1.5"/>
        <path d="M301.5,97 Q307,104 312.5,97" fill="none" stroke="#d8d8d8" stroke-width="1.8" opacity="0.8"/>
        <ellipse cx="307" cy="97" rx="3" ry="1.8" fill="url(#silverCoilTop)" stroke="none"/>
        <ellipse cx="307" cy="97" rx="1.8" ry="1.1" fill="#555" opacity="0.5"/>

        <ellipse cx="324" cy="97" rx="5.5" ry="3.5" fill="#c8c8c8" stroke="#888" stroke-width="0.8"/>
        <path d="M318.5,97 Q324,89 329.5,97 Q324,105 318.5,97" fill="none" stroke="#999" stroke-width="1.5"/>
        <path d="M318.5,97 Q324,104 329.5,97" fill="none" stroke="#d8d8d8" stroke-width="1.8" opacity="0.8"/>
        <ellipse cx="324" cy="97" rx="3" ry="1.8" fill="url(#silverCoilTop)" stroke="none"/>
        <ellipse cx="324" cy="97" rx="1.8" ry="1.1" fill="#555" opacity="0.5"/>
      </g>
      <path d="M165.5,97 Q171,90 176.5,97 Q182.5,97 182.5,97 Q188,90 193.5,97 Q199.5,97 199.5,97
               Q205,90 210.5,97 Q216.5,97 216.5,97 Q222,90 227.5,97 Q233.5,97 233.5,97
               Q239,90 244.5,97 Q250.5,97 250.5,97 Q256,90 261.5,97 Q267.5,97 267.5,97
               Q273,90 278.5,97 Q284.5,97 284.5,97 Q290,90 295.5,97 Q301.5,97 301.5,97
               Q307,90 312.5,97 Q318.5,97 318.5,97 Q324,90 329.5,97"
            fill="none" stroke="#909090" stroke-width="1.2"/>
    </g>

    <!-- BLOCK-INHALT: App-UI-Skizzen eines Software-Entwicklers -->
    <g clip-path="url(#blockClip)" filter="url(#sketchFilter)">

      <!-- Hintergrund-Linien leicht -->
      <g stroke="#f0f0f0" stroke-width="0.4" opacity="0.5">
        <line x1="156" y1="112" x2="342" y2="112"/>
        <line x1="156" y1="126" x2="342" y2="126"/>
        <line x1="156" y1="140" x2="342" y2="140"/>
        <line x1="156" y1="154" x2="342" y2="154"/>
        <line x1="156" y1="168" x2="342" y2="168"/>
        <line x1="156" y1="182" x2="342" y2="182"/>
        <line x1="156" y1="196" x2="342" y2="196"/>
        <line x1="156" y1="210" x2="342" y2="210"/>
        <line x1="156" y1="224" x2="342" y2="224"/>
        <line x1="156" y1="238" x2="342" y2="238"/>
        <line x1="156" y1="252" x2="342" y2="252"/>
        <line x1="156" y1="266" x2="342" y2="266"/>
        <line x1="156" y1="280" x2="342" y2="280"/>
        <line x1="156" y1="294" x2="342" y2="294"/>
        <line x1="156" y1="308" x2="342" y2="308"/>
        <line x1="156" y1="322" x2="342" y2="322"/>
      </g>

      <g fill="none" stroke-linecap="round" stroke-linejoin="round" font-family="'Courier New',monospace">

        <!-- === SMARTPHONE WIREFRAME links oben === -->
        <g transform="translate(162, 104)" stroke="#3a3a3a" stroke-width="1.5">
          <rect x="0" y="0" width="36" height="62" rx="4" fill="#f2f2f2" stroke-width="1.4"/>
          <!-- Statusbar -->
          <rect x="2" y="2" width="32" height="6" rx="1" fill="#e8e8e8" stroke-width="0.7"/>
          <!-- Navbar oben -->
          <rect x="2" y="10" width="32" height="7" rx="1" fill="#ebebeb" stroke-width="0.8"/>
          <line x1="4" y1="13.5" x2="18" y2="13.5" stroke="#555555" stroke-width="1.2"/>
          <line x1="4" y1="13.5" x2="7" y2="11" stroke="#555555" stroke-width="1.0"/>
          <line x1="4" y1="13.5" x2="7" y2="16" stroke="#555555" stroke-width="0.9"/>
          <rect x="28" y="11" width="4" height="5" rx="1" fill="#cecece" stroke-width="0.7"/>
          <!-- Content cards -->
          <rect x="2" y="19" width="32" height="10" rx="1.5" fill="#eeeeee" stroke-width="0.85"/>
          <rect x="4" y="21" width="8" height="6" rx="1" fill="#fbfbfb" stroke-width="0.55"/>
          <line x1="14" y1="22" x2="32" y2="22" stroke="#747474" stroke-width="0.7"/>
          <line x1="14" y1="25" x2="28" y2="25" stroke="#7e7e7e" stroke-width="0.7"/>
          <rect x="2" y="31" width="32" height="10" rx="1.5" fill="#eeeeee" stroke-width="0.85"/>
          <rect x="4" y="33" width="8" height="6" rx="1" fill="#fbfbfb" stroke-width="0.55"/>
          <line x1="14" y1="34" x2="32" y2="34" stroke="#747474" stroke-width="0.7"/>
          <line x1="14" y1="37" x2="26" y2="37" stroke="#7e7e7e" stroke-width="0.7"/>
          <rect x="2" y="43" width="32" height="10" rx="1.5" fill="#eeeeee" stroke-width="0.85"/>
          <rect x="4" y="45" width="8" height="6" rx="1" fill="#fbfbfb" stroke-width="0.55"/>
          <line x1="14" y1="46" x2="32" y2="46" stroke="#747474" stroke-width="0.7"/>
          <line x1="14" y1="49" x2="30" y2="49" stroke="#7e7e7e" stroke-width="0.7"/>
          <!-- Bottom Nav -->
          <rect x="2" y="55" width="32" height="6" rx="1" fill="#e8e8e8" stroke-width="0.85"/>
          <circle cx="9" cy="58" r="2" fill="#b8b8b8" stroke-width="0.55"/>
          <circle cx="18" cy="58" r="2" fill="#b8b8b8" stroke-width="0.5"/>
          <circle cx="27" cy="58" r="2" fill="#b8b8b8" stroke-width="0.6"/>
          <!-- Notch -->
          <rect x="13" y="0" width="10" height="2.5" rx="1.2" fill="#c0ccd8" stroke-width="0.65"/>
        </g>

        <!-- Annotation Pfeil zum Smartphone -->
        <line x1="200" y1="125" x2="215" y2="118" stroke="#444444" stroke-width="0.9"/>
        <polygon points="215,118 210,119 212,123" fill="#444444"/>
        <text x="216" y="117" font-size="5.5" fill="#3d3d3d" font-style="italic">nav</text>

        <!-- === DESKTOP BROWSER WIREFRAME rechts oben === -->
        <g transform="translate(222, 104)" stroke="#3a3a3a" stroke-width="1.1">
          <rect x="0" y="0" width="112" height="70" rx="3" fill="#f2f5fa" stroke-width="1.5"/>
          <!-- Browser chrome -->
          <rect x="0" y="0" width="112" height="10" rx="3" fill="#e8e8e8" stroke-width="0.95"/>
          <circle cx="5" cy="5" r="2" fill="#909090" stroke-width="0.55"/>
          <circle cx="11" cy="5" r="2" fill="#909090" stroke-width="0.5"/>
          <circle cx="17" cy="5" r="2" fill="#909090" stroke-width="0.6"/>
          <rect x="22" y="2.5" width="70" height="5" rx="2.5" fill="#f8f8fc" stroke="#8a8a8a" stroke-width="0.75"/>
          <text x="24" y="6.8" font-size="4" fill="#6a6a6a">app.superdo.io</text>
          <!-- Sidebar -->
          <rect x="0" y="10" width="22" height="60" rx="1" fill="#ebebeb" stroke-width="0.65"/>
          <rect x="2" y="13" width="18" height="4" rx="1" fill="#d0d0d0" stroke-width="0.4"/>
          <rect x="2" y="19" width="18" height="3" rx="1" fill="#e5e5e5" stroke-width="0.5"/>
          <rect x="2" y="24" width="18" height="3" rx="1" fill="#e5e5e5" stroke-width="0.55"/>
          <rect x="2" y="29" width="18" height="3" rx="1" fill="#e5e5e5" stroke-width="0.4"/>
          <rect x="2" y="34" width="18" height="3" rx="1" fill="#e5e5e5" stroke-width="0.5"/>
          <rect x="2" y="39" width="18" height="3" rx="1" fill="#e5e5e5" stroke-width="0.55"/>
          <!-- Main content -->
          <rect x="24" y="13" width="84" height="7" rx="1" fill="#e4ecf8" stroke-width="0.65"/>
          <line x1="26" y1="16.5" x2="60" y2="16.5" stroke="#555555" stroke-width="0.9"/>
          <rect x="90" y="13.5" width="16" height="5.5" rx="1.5" fill="#c8c8c8" stroke-width="0.5"/>
          <!-- Cards grid -->
          <rect x="24" y="23" width="26" height="18" rx="1.5" fill="#eaf0f8" stroke-width="0.6"/>
          <rect x="24" y="25" width="26" height="5" rx="1" fill="#cecece" stroke-width="0.5"/>
          <line x1="26" y1="32.5" x2="48" y2="32.5" stroke="#747474" stroke-width="0.65"/>
          <line x1="26" y1="35.5" x2="44" y2="35.5" stroke="#7e7e7e" stroke-width="0.5"/>
          <rect x="52" y="23" width="26" height="18" rx="1.5" fill="#eaf0f8" stroke-width="0.6"/>
          <rect x="52" y="25" width="26" height="5" rx="1" fill="#cecece" stroke-width="0.55"/>
          <line x1="54" y1="32.5" x2="76" y2="32.5" stroke="#747474" stroke-width="0.65"/>
          <line x1="54" y1="35.5" x2="72" y2="35.5" stroke="#7e7e7e" stroke-width="0.5"/>
          <rect x="80" y="23" width="26" height="18" rx="1.5" fill="#eaf0f8" stroke-width="0.6"/>
          <rect x="80" y="25" width="26" height="5" rx="1" fill="#cecece" stroke-width="0.4"/>
          <line x1="82" y1="32.5" x2="104" y2="32.5" stroke="#747474" stroke-width="0.65"/>
          <line x1="82" y1="35.5" x2="100" y2="35.5" stroke="#7e7e7e" stroke-width="0.5"/>
          <!-- Tabelle -->
          <rect x="24" y="44" width="84" height="22" rx="1" fill="#f4f4f4" stroke-width="0.6"/>
          <line x1="24" y1="49" x2="108" y2="49" stroke="#8a8a8a" stroke-width="0.65"/>
          <line x1="24" y1="53" x2="108" y2="53" stroke="#b0b0b0" stroke-width="0.45"/>
          <line x1="24" y1="57" x2="108" y2="57" stroke="#b0b0b0" stroke-width="0.3"/>
          <line x1="24" y1="61" x2="108" y2="61" stroke="#b0b0b0" stroke-width="0.4"/>
          <line x1="50" y1="44" x2="50" y2="66" stroke="#b0b0b0" stroke-width="0.45"/>
          <line x1="76" y1="44" x2="76" y2="66" stroke="#b0b0b0" stroke-width="0.3"/>
          <rect x="24" y="44" width="84" height="5" rx="1" fill="#c8c8c88f4" stroke-width="0.5"/>
        </g>

        <!-- === KOMPONENTEN-SKETCHES Mitte === -->
        <g transform="translate(162, 184)" stroke="#3a3a3a">
          <!-- Button-Varianten -->
          <text x="0" y="0" font-size="5" fill="#606060" font-style="italic">components/</text>
          <rect x="0" y="3" width="28" height="8" rx="4" fill="#d8d8d8" stroke-width="1.3"/>
          <text x="3" y="9" font-size="5" fill="#4a4a4a">Primary</text>
          <rect x="32" y="3" width="28" height="8" rx="4" fill="none" stroke-width="1.4"/>
          <text x="35" y="9" font-size="5" fill="#444444">Secondary</text>
          <rect x="64" y="3" width="22" height="8" rx="4" fill="#e0e0e0" stroke-width="1.2"/>
          <text x="67" y="9" font-size="5" fill="#4a4a4a">Danger</text>
          <!-- Input field -->
          <rect x="0" y="14" width="84" height="8" rx="2" fill="#f5f5f5" stroke-width="1.0"/>
          <text x="2" y="20" font-size="5" fill="#8a8a8a" font-style="italic">Search tasks...</text>
          <line x1="78" y1="16" x2="82" y2="20" stroke="#7e7e7e" stroke-width="1.0"/>
          <line x1="82" y1="16" x2="78" y2="20" stroke="#7e7e7e" stroke-width="1.1"/>
          <!-- Toggle -->
          <rect x="0" y="25" width="18" height="8" rx="4" fill="#c8c8c8" stroke-width="1.1"/>
          <circle cx="14" cy="29" r="3.5" fill="white" stroke="#888888" stroke-width="0.7"/>
          <text x="21" y="32" font-size="5" fill="#444444">on</text>
          <rect x="36" y="25" width="18" height="8" rx="4" fill="#c8c8c8" stroke-width="1.2"/>
          <circle cx="40" cy="29" r="3.5" fill="white" stroke="#8a8a8a" stroke-width="0.85"/>
          <text x="57" y="32" font-size="5" fill="#7e7e7e">off</text>
          <!-- Checkbox -->
          <rect x="0" y="36" width="7" height="7" rx="1.5" fill="#cccccc" stroke-width="1.1"/>
          <line x1="1.5" y1="39.5" x2="3.5" y2="42" stroke="#444444" stroke-width="1.1"/>
          <line x1="3.5" y1="42" x2="7" y2="37" stroke="#444444" stroke-width="1.3"/>
          <text x="10" y="42" font-size="5" fill="#444444">Done</text>
          <rect x="36" y="36" width="7" height="7" rx="1.5" fill="#ebebeb" stroke-width="1.3"/>
          <text x="46" y="42" font-size="5" fill="#7e7e7e">Pending</text>
          <!-- Badge -->
          <rect x="0" y="46" width="16" height="7" rx="3.5" fill="#d8d8d8" stroke-width="1.0"/>
          <text x="2" y="51.5" font-size="5" fill="#505050">v2.4.1</text>
          <rect x="19" y="46" width="14" height="7" rx="3.5" fill="#e0e0e0" stroke-width="0.9"/>
          <text x="21" y="51.5" font-size="5" fill="#4a4a4a">bug</text>
          <rect x="36" y="46" width="18" height="7" rx="3.5" fill="#d8d8d8" stroke-width="1.1"/>
          <text x="38" y="51.5" font-size="5" fill="#4a4a4a">feature</text>
          <rect x="57" y="46" width="14" height="7" rx="3.5" fill="#e8e8e8" stroke-width="1.2"/>
          <text x="59" y="51.5" font-size="5" fill="#505050">WIP</text>
        </g>

        <!-- === FLOW CHART / USER FLOW === -->
        <g transform="translate(162, 254)" stroke="#3a3a3a" stroke-width="1.1">
          <text x="0" y="0" font-size="5" fill="#606060" font-style="italic">user flow</text>
          <!-- Nodes -->
          <rect x="0" y="3" width="22" height="10" rx="5" fill="#ebebeb" stroke-width="1.1"/>
          <text x="2" y="10" font-size="5" fill="#3d3d3d">Login</text>
          <line x1="22" y1="8" x2="30" y2="8" stroke="#444444" stroke-width="1.2"/>
          <polygon points="30,8 27,6.5 27,9.5" fill="#444444"/>
          <rect x="30" y="3" width="26" height="10" rx="2" fill="#eeeeee" stroke-width="1.4"/>
          <text x="32" y="10" font-size="5" fill="#3d3d3d">Dashboard</text>
          <line x1="56" y1="8" x2="64" y2="8" stroke="#444444" stroke-width="1.1"/>
          <polygon points="64,8 61,6.5 61,9.5" fill="#444444"/>
          <rect x="64" y="3" width="22" height="10" rx="2" fill="#eeeeee" stroke-width="1.1"/>
          <text x="66" y="10" font-size="5" fill="#3d3d3d">Detail</text>
          <!-- Branch -->
          <line x1="43" y1="13" x2="43" y2="21" stroke="#606060" stroke-width="1.0"/>
          <polygon points="43,21 41.5,18 44.5,18" fill="#606060"/>
          <rect x="30" y="21" width="26" height="10" rx="2" fill="#f2f2f2" stroke-width="1.4"/>
          <text x="32" y="28" font-size="5" fill="#3d3d3d">Settings</text>
          <!-- Annotation -->
          <text x="0" y="26" font-size="4.5" fill="#747474" font-style="italic">auth?</text>
          <line x1="0" y1="8" x2="0" y2="20" stroke="#7e7e7e" stroke-width="0.75" stroke-dasharray="2,2"/>
          <rect x="-4" y="20" width="14" height="8" rx="2" fill="#efefef" stroke-width="0.75"/>
          <text x="-3" y="26" font-size="4.5" fill="#585858">401</text>
          <!-- Zweiter Flow -->
          <text x="0" y="40" font-size="4.5" fill="#606060" font-style="italic">API flow:</text>
          <rect x="0" y="42" width="20" height="8" rx="2" fill="#efefef" stroke-width="1.1"/>
          <text x="1" y="48" font-size="4.2" fill="#484848">GET /tasks</text>
          <line x1="20" y1="46" x2="26" y2="46" stroke="#555555" stroke-width="1.1"/>
          <polygon points="26,46 23,44.5 23,47.5" fill="#555555"/>
          <rect x="26" y="42" width="18" height="8" rx="2" fill="#efefef" stroke-width="1.0"/>
          <text x="27" y="48" font-size="4.2" fill="#484848">200 OK</text>
          <line x1="44" y1="46" x2="50" y2="46" stroke="#555555" stroke-width="0.85"/>
          <polygon points="50,46 47,44.5 47,47.5" fill="#555555"/>
          <rect x="50" y="42" width="22" height="8" rx="2" fill="#f4f4f4" stroke-width="1.1"/>
          <text x="51" y="48" font-size="4.2" fill="#484848">render()</text>
          <line x1="36" y1="50" x2="36" y2="57" stroke="#606060" stroke-width="0.95" stroke-dasharray="2,2"/>
          <rect x="26" y="57" width="22" height="8" rx="2" fill="#efefef" stroke-width="0.9"/>
          <text x="27" y="63" font-size="4.2" fill="#585858">404/500</text>
        </g>

        <!-- === STATE MACHINE / ZUSTANDSDIAGRAMM === -->
        <g transform="translate(260, 184)" stroke="#3a3a3a" stroke-width="0.9">
          <text x="0" y="0" font-size="5" fill="#606060" font-style="italic">state:</text>
          <circle cx="10" cy="13" r="7" fill="#f2f2f2" stroke-width="1.3"/>
          <text x="4" y="15" font-size="4.5" fill="#4a4a4a">idle</text>
          <line x1="17" y1="10" x2="28" y2="7" stroke="#444444" stroke-width="1.1"/>
          <polygon points="28,7 24,7 25,10" fill="#444444"/>
          <circle cx="37" cy="7" r="7" fill="#f2f2f2" stroke-width="1.2"/>
          <text x="31" y="9" font-size="4.2" fill="#4a4a4a">loading</text>
          <line x1="44" y1="7" x2="55" y2="10" stroke="#444444" stroke-width="0.85"/>
          <polygon points="55,10 52,8 53,11" fill="#444444"/>
          <circle cx="63" cy="13" r="7" fill="#f2f2f2" stroke-width="1.3"/>
          <text x="57" y="15" font-size="4.2" fill="#4a4a4a">success</text>
          <line x1="37" y1="14" x2="37" y2="24" stroke="#888888" stroke-width="1.1" stroke-dasharray="2,2"/>
          <circle cx="37" cy="31" r="7" fill="#efefef" stroke-width="1.2"/>
          <text x="31" y="33" font-size="4.5" fill="#585858">error</text>
          <line x1="30" y1="31" x2="17" y2="17" stroke="#888888" stroke-width="0.75" stroke-dasharray="2,2"/>
          <polygon points="17,17 19,20 22,18" fill="#888888"/>
          <text x="20" y="26" font-size="4" fill="#888888" font-style="italic">retry</text>
          <!-- Notizen -->
          <text x="0" y="46" font-size="4.5" fill="#606060" font-style="italic">TODO:</text>
          <text x="0" y="52" font-size="4.5" fill="#444444">- add skeleton</text>
          <text x="0" y="58" font-size="4.5" fill="#444444">- cache result</text>
          <text x="0" y="64" font-size="4.5" fill="#444444">- optimistic UI</text>
          <text x="0" y="70" font-size="4.5" fill="#888888" font-style="italic">!! fix race cond.</text>
        </g>

        <!-- === DATA MODEL / DB SCHEMA SKETCH === -->
        <g transform="translate(260, 264)" stroke="#3a3a3a" stroke-width="1.1">
          <text x="0" y="0" font-size="5" fill="#606060" font-style="italic">DB schema:</text>
          <!-- User Tabelle -->
          <rect x="0" y="3" width="36" height="34" rx="2" fill="#ebebeb" stroke-width="1.4"/>
          <rect x="0" y="3" width="36" height="7" rx="2" fill="#cecece" stroke-width="0.85"/>
          <text x="2" y="9" font-size="5" fill="#444444" font-weight="bold">User</text>
          <text x="2" y="16" font-size="4.2" fill="#444444">id PK</text>
          <text x="2" y="21" font-size="4.2" fill="#444444">name</text>
          <text x="2" y="26" font-size="4.2" fill="#444444">email</text>
          <text x="2" y="31" font-size="4.2" fill="#444444">role</text>
          <text x="2" y="36" font-size="4.2" fill="#444444">created_at</text>
          <!-- Task Tabelle -->
          <rect x="44" y="3" width="36" height="42" rx="2" fill="#ebebeb" stroke-width="1.1"/>
          <rect x="44" y="3" width="36" height="7" rx="2" fill="#d0d0d0" stroke-width="0.9"/>
          <text x="46" y="9" font-size="5" fill="#4a4a4a" font-weight="bold">Task</text>
          <text x="46" y="16" font-size="4.2" fill="#444444">id PK</text>
          <text x="46" y="21" font-size="4.2" fill="#444444">title</text>
          <text x="46" y="26" font-size="4.2" fill="#444444">status</text>
          <text x="46" y="31" font-size="4.2" fill="#444444">due_date</text>
          <text x="46" y="36" font-size="4.2" fill="#444444">user_id FK</text>
          <text x="46" y="41" font-size="4.2" fill="#444444">priority</text>
          <text x="46" y="46" font-size="4.2" fill="#444444">tags[]</text>
          <!-- Relation -->
          <line x1="36" y1="20" x2="44" y2="24" stroke="#555555" stroke-width="1.2"/>
          <text x="37" y="19" font-size="4" fill="#606060" font-style="italic">1:n</text>
          <!-- Tag Tabelle -->
          <rect x="0" y="44" width="36" height="26" rx="2" fill="#f2f2f2" stroke-width="1.2"/>
          <rect x="0" y="44" width="36" height="7" rx="2" fill="#d8d8d8" stroke-width="0.75"/>
          <text x="2" y="50" font-size="5" fill="#4a4a4a" font-weight="bold">Tag</text>
          <text x="2" y="57" font-size="4.2" fill="#444444">id PK</text>
          <text x="2" y="62" font-size="4.2" fill="#444444">name</text>
          <text x="2" y="67" font-size="4.2" fill="#444444">color</text>
          <line x1="36" y1="57" x2="44" y2="44" stroke="#555555" stroke-width="0.9" stroke-dasharray="2,2"/>
          <text x="37" y="53" font-size="4" fill="#606060" font-style="italic">m:n</text>
        </g>

        <!-- === CHAOTISCHE NOTIZEN / KRAKEL === -->
        <g stroke="#3a3a3a" opacity="0.75">
          <!-- Durchgestrichenes -->
          <text x="162" y="180" font-size="5.5" fill="#444444" transform="rotate(-4,162,180)">useEffect cleanup!!</text>
          <line x1="162" y1="179" x2="226" y2="179" stroke="#888888" stroke-width="1.4"/>
          <text x="164" y="173" font-size="5" fill="#606060" transform="rotate(3,164,173)">TODO: debounce search</text>
          <text x="162" y="332" font-size="5.5" fill="#444444" transform="rotate(-3,162,332)">v2 API migration?</text>
          <text x="164" y="325" font-size="5" fill="#888888" transform="rotate(2,164,325)">!!! breaking change</text>
          <text x="256" y="182" font-size="5" fill="#606060" transform="rotate(-6,256,182)" font-style="italic">perf issue here</text>
          <line x1="256" y1="184" x2="300" y2="190" stroke="#909090" stroke-width="0.9"/>
          <!-- Klammern / Code-Fetzen -->
          <text x="162" y="342" font-size="5" fill="#444444" transform="rotate(4,162,342)" font-style="italic">if(tasks.length===0)</text>
          <text x="164" y="349" font-size="5" fill="#444444" transform="rotate(4,164,349)" font-style="italic">  return emptyState()</text>
          <!-- Pfeil-Notiz -->
          <line x1="254" y1="256" x2="262" y2="248" stroke="#555555" stroke-width="0.9"/>
          <polygon points="262,248 258,249 260,253" fill="#555555"/>
          <text x="263" y="247" font-size="5" fill="#444444" font-style="italic">refactor</text>
          <!-- Stern/Wichtig markierung -->
          <text x="336" y="178" font-size="10" fill="#909090" transform="rotate(15,336,178)">*</text>
          <text x="160" y="202" font-size="10" fill="#909090" transform="rotate(-8,160,202)">*</text>
          <!-- Fragezeichen -->
          <text x="248" y="330" font-size="9" fill="#6a6a6a" transform="rotate(12,248,330)">?</text>
          <text x="336" y="328" font-size="9" fill="#6a6a6a" transform="rotate(-9,336,328)">?</text>
          <!-- Klammerpfeil -->
          <path d="M336,260 Q344,270 336,280" stroke="#606060" stroke-width="1.2" fill="none"/>
          <polygon points="336,280 338,276 333,276" fill="#606060"/>
          <text x="338" y="272" font-size="4.5" fill="#606060" font-style="italic">loop</text>
          <!-- Unterstreichungen -->
          <line x1="260" y1="184" x2="300" y2="184" stroke="#444444" stroke-width="0.85" stroke-dasharray="3,2"/>
          <line x1="162" y1="254" x2="248" y2="254" stroke="#444444" stroke-width="0.65" stroke-dasharray="4,3"/>
          <!-- Kleines Koordinatensystem / Chart-Skizze -->
          <line x1="162" y1="310" x2="162" y2="328" stroke="#555555" stroke-width="1.0"/>
          <line x1="162" y1="328" x2="200" y2="328" stroke="#555555" stroke-width="1.2"/>
          <path d="M163,326 L168,318 L174,322 L180,312 L186,316 L192,308 L198,314" stroke="#505050" stroke-width="1.6" fill="none"/>
          <text x="164" y="308" font-size="4.5" fill="#444444" font-style="italic">MAU</text>
          <!-- Zweites kleines Chart -->
          <rect x="208" y="310" width="8" height="18" rx="1" fill="#cccccc" stroke-width="0.75"/>
          <rect x="218" y="316" width="8" height="12" rx="1" fill="#cccccc" stroke-width="0.7"/>
          <rect x="228" y="312" width="8" height="16" rx="1" fill="#cccccc" stroke-width="0.8"/>
          <rect x="238" y="308" width="8" height="20" rx="1" fill="#c4c4c4" stroke-width="0.85"/>
          <line x1="206" y1="328" x2="250" y2="328" stroke="#555555" stroke-width="0.9"/>
        </g>


        <!-- === EXTRA CHAOS === -->
        <g stroke-linecap="round" stroke-linejoin="round" font-family="'Courier New',monospace">

          <!-- Zufällige Pfeil-Verbindungen quer über alles -->
          <line x1="198" y1="145" x2="270" y2="162" stroke="#444444" stroke-width="0.75" stroke-dasharray="3,2" opacity="0.7"/>
          <polygon points="270,162 266,160 267,164" fill="#444444" opacity="0.7"/>
          <line x1="300" y1="200" x2="220" y2="230" stroke="#606060" stroke-width="0.9" stroke-dasharray="4,2" opacity="0.6"/>
          <polygon points="220,230 224,227 222,231" fill="#606060" opacity="0.6"/>
          <line x1="180" y1="280" x2="260" y2="240" stroke="#555555" stroke-width="0.85" stroke-dasharray="2,3" opacity="0.6"/>
          <polygon points="260,240 256,242 258,246" fill="#555555" opacity="0.6"/>
          <line x1="338" y1="250" x2="300" y2="310" stroke="#6a6a6a" stroke-width="0.85" stroke-dasharray="3,3" opacity="0.5"/>

          <!-- Handschriftliche Randbemerkungen schräg -->
          <text x="158" y="118" font-size="4.5" fill="#444444" transform="rotate(-12,158,118)" font-style="italic" opacity="0.85">MVP!!</text>
          <text x="318" y="115" font-size="4.5" fill="#888888" transform="rotate(8,318,115)" opacity="0.9">URGENT</text>
          <text x="158" y="165" font-size="4" fill="#606060" transform="rotate(-5,158,165)" font-style="italic" opacity="0.8">see figma p.3</text>
          <text x="310" y="168" font-size="4" fill="#444444" transform="rotate(11,310,168)" opacity="0.8">sync?</text>
          <text x="158" y="220" font-size="4.5" fill="#444444" transform="rotate(6,158,220)" font-style="italic" opacity="0.85">lazy load!</text>
          <text x="310" y="222" font-size="4" fill="#6a6a6a" transform="rotate(-7,310,222)" opacity="0.8">perf?</text>
          <text x="160" y="288" font-size="4" fill="#888888" transform="rotate(-8,160,288)" opacity="0.9">BUG #247</text>
          <text x="308" y="290" font-size="4" fill="#444444" transform="rotate(5,308,290)" font-style="italic" opacity="0.8">memo()</text>
          <text x="158" y="316" font-size="4.5" fill="#444444" transform="rotate(-4,158,316)" font-style="italic" opacity="0.85">sprint 14</text>
          <text x="305" y="318" font-size="4" fill="#888888" transform="rotate(9,305,318)" opacity="0.85">deadline!</text>
          <text x="240" y="112" font-size="4.5" fill="#555555" transform="rotate(-3,240,112)" font-style="italic" opacity="0.8">v2.0 scope</text>
          <text x="238" y="200" font-size="4" fill="#444444" transform="rotate(7,238,200)" opacity="0.75">normalize?</text>
          <text x="238" y="268" font-size="4" fill="#6a6a6a" transform="rotate(-5,238,268)" opacity="0.8">websocket!</text>
          <text x="240" y="330" font-size="4" fill="#606060" transform="rotate(3,240,330)" font-style="italic" opacity="0.8">test coverage 68%</text>

          <!-- Wellenlinien Hintergrund -->
          <path d="M158,135 Q172,130 186,137 Q200,143 214,136 Q228,129 242,137 Q256,144 270,137 Q284,130 298,137 Q312,144 326,137 Q336,132 340,134" stroke="#444444" stroke-width="0.6" fill="none" opacity="0.25" stroke-dasharray="5,4"/>
          <path d="M158,210 Q175,205 192,212 Q210,219 228,210 Q246,201 264,210 Q282,219 300,211 Q318,203 338,210" stroke="#444444" stroke-width="0.6" fill="none" opacity="0.2" stroke-dasharray="4,4"/>
          <path d="M158,285 Q178,280 198,287 Q218,294 238,285 Q258,276 278,285 Q298,294 318,285 Q332,278 340,282" stroke="#444444" stroke-width="0.65" fill="none" opacity="0.2" stroke-dasharray="4,5"/>

          <!-- Kleine Skizzen-Fragmente verstreut -->
          <!-- Mini Kanban Board -->
          <g transform="translate(163,108)" opacity="0.9">
            <text x="0" y="0" font-size="4" fill="#444444" font-style="italic">kanban:</text>
            <rect x="0" y="2" width="15" height="10" rx="1" fill="#efefef" stroke="#909090" stroke-width="0.75"/>
            <text x="1" y="9" font-size="3.5" fill="#4a4a4a">Todo(3)</text>
            <rect x="17" y="2" width="15" height="10" rx="1" fill="#f4f4f4" stroke="#909090" stroke-width="0.7"/>
            <text x="18" y="9" font-size="3.5" fill="#505050">WIP(2)</text>
            <rect x="34" y="2" width="15" height="10" rx="1" fill="#e8fee8" stroke="#909090" stroke-width="0.8"/>
            <text x="35" y="9" font-size="3.5" fill="#505050">Done(7)</text>
          </g>

          <!-- Zufällige Kreise/Formen -->
          <circle cx="335" cy="136" r="6" fill="none" stroke="#606060" stroke-width="0.95" stroke-dasharray="2,2" opacity="0.6"/>
          <circle cx="335" cy="136" r="2.5" fill="#c8c8c8" stroke="#444444" stroke-width="0.65" opacity="0.6"/>
          <circle cx="162" cy="258" r="5" fill="none" stroke="#6a6a6a" stroke-width="0.75" stroke-dasharray="2,2" opacity="0.6"/>

          <!-- Durchstreichungen und Korrekturen -->
          <text x="200" y="175" font-size="5" fill="#444444" transform="rotate(-6,200,175)" opacity="0.6">Redux</text>
          <line x1="198" y1="174" x2="220" y2="174" stroke="#888888" stroke-width="1.2" opacity="0.7"/>
          <text x="222" y="175" font-size="5" fill="#484848" transform="rotate(-6,222,175)" opacity="0.85">Zustand</text>

          <text x="278" y="135" font-size="5" fill="#444444" transform="rotate(5,278,135)" opacity="0.6">REST</text>
          <line x1="276" y1="134" x2="296" y2="134" stroke="#888888" stroke-width="1.2" opacity="0.7"/>
          <text x="298" y="135" font-size="5" fill="#484848" transform="rotate(5,298,135)" opacity="0.85">GraphQL</text>

          <!-- Klammern-Code -->
          <text x="163" y="237" font-size="4" fill="#555555" transform="rotate(3,163,237)" font-style="italic" opacity="0.8">const fn = async() =&gt; &#123;</text>
          <text x="165" y="243" font-size="4" fill="#555555" transform="rotate(3,165,243)" font-style="italic" opacity="0.8">  await fetch(url)</text>
          <text x="163" y="249" font-size="4" fill="#555555" transform="rotate(3,163,249)" font-style="italic" opacity="0.8">&#125;</text>

          <!-- Zahlen/Metriken verstreut -->
          <text x="320" y="205" font-size="6" fill="#5b5b5b" transform="rotate(-8,320,205)" font-weight="bold" opacity="0.8">98ms</text>
          <text x="322" y="213" font-size="4" fill="#606060" transform="rotate(-8,322,213)" opacity="0.7">p95 latency</text>
          <text x="163" y="302" font-size="6" fill="#484848" transform="rotate(6,163,302)" font-weight="bold" opacity="0.8">4.2k</text>
          <text x="163" y="309" font-size="4" fill="#606060" transform="rotate(6,163,309)" opacity="0.7">DAU</text>

          <!-- Eckige Klammern / Array-Notation -->
          <text x="322" y="285" font-size="5" fill="#444444" transform="rotate(-5,322,285)" font-style="italic" opacity="0.75">[...tasks]</text>
          <text x="322" y="293" font-size="5" fill="#444444" transform="rotate(-5,322,293)" font-style="italic" opacity="0.75">.filter()</text>
          <text x="322" y="301" font-size="5" fill="#444444" transform="rotate(-5,322,301)" font-style="italic" opacity="0.75">.map()</text>

        </g>
      </g>
    </g>


  </g>

    <!-- ======= BLEISTIFT (auf Block angepasst) ======= -->
  <g transform="rotate(302, 250, 220)" filter="url(#pencilShadow)">

    <!-- Bleistift-Koerper -->
    <rect x="140" y="208" width="208" height="15" rx="3" fill="url(#pencilDarkGreen)"/>
    <rect x="140" y="208" width="208" height="5" rx="3" fill="url(#pencilHighlight)"/>
    <rect x="140" y="219" width="208" height="4" rx="1.5" fill="#0f2e12" opacity="0.5"/>
    <line x1="140" y1="212" x2="348" y2="212" stroke="#4a8a50" stroke-width="0.7" opacity="0.5"/>
    <line x1="140" y1="216" x2="348" y2="216" stroke="#0e2810" stroke-width="0.5" opacity="0.4"/>

    <!-- Holz-Konus bündig am Körper -->
    <polygon points="140,208 140,223 116,215.5" fill="url(#woodTip)"/>
    <!-- Holz-Maserung -->
    <line x1="140" y1="211" x2="125" y2="214" stroke="#b07838" stroke-width="0.6" opacity="0.6"/>
    <line x1="140" y1="214" x2="124" y2="215.5" stroke="#b07838" stroke-width="0.5" opacity="0.5"/>
    <line x1="140" y1="217" x2="125" y2="217" stroke="#b07838" stroke-width="0.6" opacity="0.6"/>
    <line x1="140" y1="220" x2="126" y2="218.5" stroke="#b07838" stroke-width="0.5" opacity="0.5"/>
    <polygon points="140,208 140,223 116,215.5" fill="none" stroke="#7a5020" stroke-width="1.2"/>

    <!-- MINE: deutlich schmaler (nur 3px breit, spitz) -->
    <polygon points="116,215.5 122,213.5 122,217.5" fill="#1e1e1e"/>
    <polygon points="116,215.5 122,217.5 123,219 123,212 122,213.5" fill="#3a3a3a"/>
    <line x1="116" y1="215.5" x2="122" y2="213.8" stroke="#555" stroke-width="0.5"/>
    <polygon points="116,215.5 122,213.5 122,217.5" fill="none" stroke="#111" stroke-width="1"/>
    <!-- Spitzglanz -->
    <circle cx="117.5" cy="214.8" r="0.7" fill="#777" opacity="0.9"/>

    <!-- Klare Trennlinie Holz/Koerper -->
    <line x1="140" y1="207" x2="140" y2="224" stroke="#1a3a10" stroke-width="2"/>

    <!-- Ferrule -->
    <rect x="348" y="207" width="15" height="17" rx="1.5" fill="url(#ferruleGrad)"/>
    <line x1="348" y1="210" x2="363" y2="210" stroke="#d0d0d0" stroke-width="0.7"/>
    <line x1="348" y1="212.5" x2="363" y2="212.5" stroke="#a8a8a8" stroke-width="0.6"/>
    <line x1="348" y1="215" x2="363" y2="215" stroke="#d8d8d8" stroke-width="0.7"/>
    <line x1="348" y1="217.5" x2="363" y2="217.5" stroke="#a8a8a8" stroke-width="0.6"/>
    <line x1="348" y1="220" x2="363" y2="220" stroke="#d0d0d0" stroke-width="0.7"/>
    <rect x="348" y="207" width="15" height="17" rx="1.5" fill="none" stroke="#808080" stroke-width="1.2"/>

    <!-- Radiergummi -->
    <rect x="363" y="207" width="28" height="17" rx="4" fill="url(#eraserGrad)"/>
    <rect x="363" y="207" width="28" height="6" rx="4" fill="white" opacity="0.6"/>
    <rect x="363" y="218" width="28" height="6" rx="3" fill="#c0b8b0" opacity="0.7"/>
    <line x1="331" y1="211" x2="350" y2="211" stroke="#d5cfd8" stroke-width="0.8"/>
    <line x1="331" y1="214" x2="350" y2="214" stroke="#e0dbd5" stroke-width="0.6"/>
    <line x1="370" y1="208.5" x2="374" y2="208.5" stroke="#bbb5ae" stroke-width="0.7"/>
    <line x1="377" y1="208.5" x2="382" y2="208.5" stroke="#bbb5ae" stroke-width="0.7"/>
    <rect x="363" y="207" width="28" height="17" rx="4" fill="none" stroke="#8a8078" stroke-width="1.4"/>

    <!-- Comic-Outline Bleistift gesamt -->
    <rect x="140" y="208" width="208" height="15" rx="3" fill="none" stroke="#1a2a18" stroke-width="2"/>

  </g>

</svg>